<svg width="35"
     height="36"
     viewBox="0 0 35 36"
     fill="none"
     xmlns="http://www.w3.org/2000/svg">
  <path d="M4.30205 13.706C4.34119 13.5754 4.38342 13.4452 4.42514 13.3151C4.38394 13.4458 4.3417 13.5754 4.30205 13.706Z" fill="white" />
  <path d="M4.13286 14.2759C4.15809 14.1752 4.18745 14.0755 4.21423 13.9753C4.18745 14.0755 4.15809 14.1752 4.13286 14.2759Z" fill="white" />
  <path d="M3.96709 15.0118C3.98357 14.9261 3.99747 14.8393 4.01447 14.7536C3.99696 14.8393 3.98357 14.9261 3.96709 15.0118Z" fill="white" />
  <path d="M8.0205 13.6172C8.00607 13.6528 7.99371 13.689 7.97929 13.7246C7.99371 13.689 8.00607 13.6528 8.0205 13.6172Z" fill="white" />
  <path d="M3.7769 16.424C3.78926 16.2866 3.80368 16.1503 3.81862 16.0134C3.80368 16.1498 3.78926 16.2866 3.7769 16.424Z" fill="white" />
  <path d="M3.73271 17.0405C3.73838 16.9202 3.74713 16.7999 3.75434 16.6801C3.74713 16.8004 3.73786 16.9202 3.73271 17.0405Z" fill="white" />
  <path d="M3.85185 15.7683C3.86988 15.6377 3.88739 15.507 3.90747 15.3769C3.88739 15.507 3.87039 15.6377 3.85185 15.7683Z" fill="white" />
  <path d="M7.34072 16.2253C7.32579 16.3457 7.30931 16.466 7.29643 16.5869C7.30931 16.466 7.32579 16.3457 7.34072 16.2253Z" fill="white" />
  <path d="M7.85341 14.1173C7.82148 14.2092 7.79315 14.3022 7.76225 14.3946C7.79264 14.3022 7.82148 14.2092 7.85341 14.1173Z" fill="white" />
  <path d="M7.27588 16.7974C7.26867 16.9017 7.25837 17.005 7.25322 17.1099C7.25837 17.0056 7.26867 16.9017 7.27588 16.7974Z" fill="white" />
  <path d="M7.69114 14.6275C7.65869 14.7391 7.62882 14.8512 7.59843 14.9637C7.62882 14.8512 7.65869 14.7391 7.69114 14.6275Z" fill="white" />
  <path d="M7.54941 15.1482C7.52108 15.2685 7.4943 15.3888 7.46855 15.5097C7.49482 15.3888 7.5216 15.2685 7.54941 15.1482Z" fill="white" />
  <path d="M7.43232 15.6795C7.41017 15.8035 7.38802 15.9269 7.36845 16.0514C7.38751 15.9269 7.40966 15.8035 7.43232 15.6795Z" fill="white" />
  <path d="M7.44438 19.5814C7.46447 19.68 7.48867 19.7776 7.5103 19.8757C7.48867 19.7776 7.46447 19.68 7.44438 19.5814Z" fill="url(#paint0_linear_1_224)" />
  <path d="M3.87664 19.6284C3.87458 19.6134 3.87149 19.5989 3.86943 19.584C3.87098 19.5989 3.87407 19.6134 3.87664 19.6284Z" fill="url(#paint1_linear_1_224)" />
  <path d="M7.55913 20.0823C7.58333 20.1779 7.61166 20.2719 7.63741 20.3664C7.61166 20.2719 7.58385 20.1779 7.55913 20.0823Z" fill="url(#paint2_linear_1_224)" />
  <path d="M3.80631 19.1158C3.79498 19.0069 3.78571 18.8979 3.77592 18.7889C3.78623 18.8979 3.79498 19.0069 3.80631 19.1158Z" fill="url(#paint3_linear_1_224)" />
  <path d="M3.75025 18.4749C3.74407 18.3649 3.73686 18.2554 3.73222 18.1454C3.73686 18.2554 3.74355 18.3655 3.75025 18.4749Z" fill="url(#paint4_linear_1_224)" />
  <path d="M7.35429 19.0737C7.36974 19.1749 7.38932 19.2746 7.40631 19.3753C7.38932 19.2746 7.36974 19.1749 7.35429 19.0737Z" fill="url(#paint5_linear_1_224)" />
  <path d="M4.19337 21.1381C4.16556 21.0312 4.14033 20.9237 4.11406 20.8163C4.14033 20.9237 4.16556 21.0312 4.19337 21.1381Z" fill="url(#paint6_linear_1_224)" />
  <path d="M7.25127 18.0422C7.2559 18.1342 7.26569 18.2256 7.27135 18.3175C7.26517 18.2256 7.25539 18.1342 7.25127 18.0422Z" fill="url(#paint7_linear_1_224)" />
  <path d="M7.69902 20.5758C7.72786 20.6682 7.75979 20.7597 7.79018 20.8521C7.75928 20.7597 7.72735 20.6682 7.69902 20.5758Z" fill="url(#paint8_linear_1_224)" />
  <path d="M7.28984 18.5603C7.30014 18.6615 7.31508 18.7622 7.32692 18.8629C7.31508 18.7617 7.29963 18.6615 7.28984 18.5603Z" fill="url(#paint9_linear_1_224)" />
  <path d="M4.04386 20.5204C4.02068 20.4109 3.99699 20.3014 3.97588 20.1919C3.99699 20.3019 4.02068 20.4109 4.04386 20.5204Z" fill="url(#paint10_linear_1_224)" />
  <path fill-rule="evenodd" clip-rule="evenodd" d="M25.8588 25.211L26.7695 26.0436C26.7743 26.0382 26.779 26.0327 26.7836 26.0272L26.7937 26.0153L27.6018 26.8256C27.4648 26.9753 27.325 27.1228 27.1812 27.267C25.9193 28.5321 24.4496 29.5257 22.8127 30.22C21.1169 30.9393 19.3165 31.3038 17.4617 31.3038C15.6068 31.3038 13.8067 30.9393 12.111 30.22C10.474 29.5259 9.00433 28.5324 7.74248 27.267C6.48091 26.0017 5.49005 24.5279 4.79757 22.8865C4.61681 22.4578 4.45883 22.0224 4.32304 21.5812H8.06854C8.06522 21.5734 8.06219 21.5656 8.05917 21.5577C8.05614 21.5498 8.05311 21.5419 8.0498 21.5341C8.55633 22.7278 9.29032 23.8254 10.2325 24.7702C12.1634 26.7065 14.731 27.7729 17.462 27.7729C20.1932 27.7729 22.7608 26.7065 24.6917 24.7702C24.8362 24.6256 24.9749 24.477 25.1092 24.3255L25.9207 25.1393C25.9113 25.15 25.9021 25.1608 25.8929 25.1717C25.8816 25.185 25.8704 25.1983 25.8588 25.211ZM5.87212 22.4739C5.95399 22.6673 6.04192 22.861 6.13302 23.0495L7.24179 22.5098C7.15934 22.3398 7.08006 22.1649 7.00626 21.9906L5.87212 22.4739ZM8.14297 26.0263C8.00229 25.8713 7.86362 25.7109 7.731 25.5493L8.68237 24.7638C8.80201 24.9095 8.92713 25.0543 9.05398 25.194L8.14297 26.0263ZM10.3802 27.9698C10.5531 28.0874 10.7316 28.2025 10.9101 28.3115L11.5509 27.2557C11.3895 27.1574 11.2286 27.0537 11.0724 26.9473L10.3802 27.9698ZM14.2065 29.7271C14.0044 29.6728 13.8009 29.6124 13.6014 29.5479L13.9802 28.3719C14.1604 28.4303 14.344 28.4847 14.5262 28.5338L14.2065 29.7271ZM17.1693 28.9192L17.1373 30.1544C17.3466 30.1599 17.5587 30.1599 17.768 30.1547L17.7378 28.9194C17.5489 28.9241 17.3578 28.9241 17.1693 28.9192ZM21.2895 29.5592C21.188 29.5916 21.0845 29.6234 20.9819 29.6531C20.8873 29.6806 20.7919 29.7075 20.6982 29.7324L20.3814 28.5381C20.4659 28.5156 20.5521 28.4916 20.6374 28.4664C20.7302 28.4393 20.8236 28.4106 20.9153 28.3814L20.9297 28.3768L21.301 29.5551L21.2895 29.5592ZM23.3604 27.2702L23.9984 28.3274C24.1777 28.2187 24.3564 28.1039 24.5297 27.9866L23.8393 26.9629C23.6833 27.0687 23.5221 27.1722 23.3604 27.2702Z" fill="url(#paint11_linear_1_224)" />
  <path d="M7.86259 21.06C7.89607 21.1514 7.93264 21.2418 7.96766 21.3327C7.93212 21.2418 7.89607 21.1514 7.86259 21.06Z" fill="url(#paint12_linear_1_224)" />
  <path d="M10.3802 27.9698C10.5531 28.0875 10.7316 28.2025 10.9101 28.3115L11.5506 27.2558C11.3895 27.1575 11.2283 27.0537 11.0721 26.9473L10.3802 27.9698Z" fill="white" />
  <path d="M10.3802 27.9698C10.5531 28.0875 10.7316 28.2025 10.9101 28.3115L11.5506 27.2558C11.3895 27.1575 11.2283 27.0537 11.0721 26.9473L10.3802 27.9698Z" fill="url(#paint13_linear_1_224)" />
  <path d="M5.87212 22.4739C5.95399 22.6673 6.04192 22.8607 6.13302 23.0495L7.24179 22.5101C7.15934 22.3401 7.08035 22.1652 7.00626 21.9909L5.87212 22.4739Z" fill="white" />
  <path d="M5.87212 22.4739C5.95399 22.6673 6.04192 22.8607 6.13302 23.0495L7.24179 22.5101C7.15934 22.3401 7.08035 22.1652 7.00626 21.9909L5.87212 22.4739Z" fill="url(#paint14_linear_1_224)" />
  <path d="M7.731 25.5493C7.86362 25.7109 8.00229 25.8713 8.14297 26.0263L9.05398 25.194C8.92713 25.0544 8.80201 24.9095 8.68237 24.7638L7.731 25.5493Z" fill="white" />
  <path d="M7.731 25.5493C7.86362 25.7109 8.00229 25.8713 8.14297 26.0263L9.05398 25.194C8.92713 25.0544 8.80201 24.9095 8.68237 24.7638L7.731 25.5493Z" fill="url(#paint15_linear_1_224)" />
  <path d="M17.1693 28.9192L17.1373 30.1544C17.3466 30.1599 17.5587 30.1599 17.768 30.1547L17.7378 28.9194C17.5492 28.9241 17.3578 28.9241 17.1693 28.9192Z" fill="white" />
  <path d="M17.1693 28.9192L17.1373 30.1544C17.3466 30.1599 17.5587 30.1599 17.768 30.1547L17.7378 28.9194C17.5492 28.9241 17.3578 28.9241 17.1693 28.9192Z" fill="url(#paint16_linear_1_224)" />
  <path d="M13.6014 29.5479C13.8009 29.6127 14.0044 29.6728 14.2065 29.7272L14.5262 28.5338C14.344 28.4847 14.1601 28.4303 13.9802 28.3719L13.6014 29.5479Z" fill="white" />
  <path d="M13.6014 29.5479C13.8009 29.6127 14.0044 29.6728 14.2065 29.7272L14.5262 28.5338C14.344 28.4847 14.1601 28.4303 13.9802 28.3719L13.6014 29.5479Z" fill="url(#paint17_linear_1_224)" />
  <path opacity="0.48" d="M27.6773 22.5283L28.7843 23.0715C28.8763 22.8833 28.9648 22.6899 29.0473 22.4968L27.9146 22.0097C27.8402 22.1837 27.7603 22.3583 27.6773 22.5283Z" fill="white" />
  <path opacity="0.6" d="M27.182 25.5666L26.2309 24.7806C26.1309 24.9023 26.0259 25.0217 25.9207 25.1396L26.7939 26.0153C26.926 25.869 27.0569 25.7187 27.182 25.5666Z" fill="white" />
  <path d="M26.7694 26.0436C26.7778 26.0344 26.7855 26.0245 26.7939 26.015L25.9207 25.1393C25.8996 25.1628 25.8797 25.1876 25.8587 25.211L26.7694 26.0436Z" fill="url(#paint18_linear_1_224)" />
  <path opacity="0.6" d="M26.7694 26.0436C26.7778 26.0344 26.7855 26.0245 26.7939 26.015L25.9207 25.1393C25.8996 25.1628 25.8797 25.1876 25.8587 25.211L26.7694 26.0436Z" fill="white" />
  <path d="M23.3602 27.2702L23.9981 28.3274C24.1775 28.2187 24.3562 28.1039 24.5295 27.9863L23.839 26.9626C23.6828 27.0687 23.5216 27.1719 23.3602 27.2702Z" fill="url(#paint19_linear_1_224)" />
  <path opacity="0.7" d="M23.3602 27.2702L23.9981 28.3274C24.1775 28.2187 24.3562 28.1039 24.5295 27.9863L23.839 26.9626C23.6828 27.0687 23.5216 27.1719 23.3602 27.2702Z" fill="white" />
  <path d="M20.9153 28.3817C20.8236 28.4109 20.7302 28.4396 20.6374 28.4667C20.5521 28.4916 20.4659 28.5159 20.3814 28.5384L20.6982 29.7327C20.7919 29.7078 20.8873 29.6809 20.9819 29.6534C21.0845 29.6234 21.188 29.5919 21.2895 29.5595L21.301 29.5557L20.9297 28.3774L20.9153 28.3817Z" fill="url(#paint20_linear_1_224)" />
  <path opacity="0.85" d="M20.9153 28.3817C20.8236 28.4109 20.7302 28.4396 20.6374 28.4667C20.5521 28.4916 20.4659 28.5159 20.3814 28.5384L20.6982 29.7327C20.7919 29.7078 20.8873 29.6809 20.9819 29.6534C21.0845 29.6234 21.188 29.5919 21.2895 29.5595L21.301 29.5557L20.9297 28.3774L20.9153 28.3817Z" fill="white" />
  <path fill-rule="evenodd" clip-rule="evenodd" d="M25.5829 6.03904V6.04164C26.8548 6.13762 27.8609 7.20377 27.8606 8.50351C27.8606 9.86627 26.755 10.9752 25.3957 10.9752C24.302 10.9752 23.374 10.2568 23.0525 9.26641H23.0511C22.9104 8.89696 22.6705 8.70558 22.5716 8.63909C21.0348 7.74639 19.2854 7.26853 17.4617 7.26853C14.7307 7.26853 12.1631 8.33497 10.2322 10.2713C9.3938 11.1119 8.71949 12.0732 8.2242 13.1156C8.14579 13.2807 8.0717 13.4481 8.00222 13.6172C7.99803 13.6274 7.99415 13.6378 7.99026 13.6483C7.98665 13.658 7.98304 13.6677 7.97915 13.6773C7.92063 13.8227 7.86499 13.9693 7.8131 14.1173C7.80256 14.1476 7.79272 14.1782 7.78288 14.2087C7.77603 14.23 7.76917 14.2513 7.76207 14.2725C7.72286 14.3902 7.6851 14.5084 7.65021 14.6275C7.63544 14.6783 7.62162 14.7295 7.60782 14.7806C7.60466 14.7923 7.60149 14.804 7.59832 14.8157C7.56834 14.9262 7.5398 15.0369 7.51356 15.1485C7.49771 15.2155 7.48271 15.2832 7.4683 15.3508C7.44495 15.4601 7.42361 15.5697 7.40372 15.6798L7.40252 15.6866C7.39052 15.7537 7.37857 15.8206 7.36797 15.888C7.3501 16.0001 7.33511 16.1126 7.32098 16.2256C7.31851 16.2456 7.31595 16.2655 7.3134 16.2855C7.30733 16.3329 7.30126 16.3804 7.29619 16.428C7.28322 16.5506 7.27399 16.674 7.26534 16.7977C7.26378 16.8203 7.26201 16.8428 7.26024 16.8652C7.25742 16.901 7.2546 16.9368 7.25266 16.9726C7.24314 17.1545 7.23767 17.3372 7.23767 17.5207C7.23767 17.6953 7.24228 17.8691 7.25093 18.0422C7.25248 18.0731 7.25497 18.1038 7.25745 18.1345C7.25912 18.1551 7.26078 18.1757 7.26217 18.1963L7.26227 18.1979C7.27002 18.3188 7.27779 18.44 7.28985 18.5603C7.29329 18.5941 7.29765 18.6277 7.30202 18.6613C7.30497 18.6841 7.30793 18.7068 7.3106 18.7297C7.31216 18.7429 7.3137 18.7561 7.31524 18.7692C7.32718 18.8711 7.33911 18.9729 7.35442 19.0737C7.35974 19.1085 7.36592 19.143 7.37211 19.1775C7.37599 19.1991 7.37987 19.2208 7.38354 19.2425L7.3849 19.2506C7.40347 19.361 7.42214 19.4718 7.44437 19.5814C7.45132 19.6155 7.45915 19.6494 7.46698 19.6833C7.47181 19.7042 7.47665 19.7252 7.48127 19.7461C7.50607 19.8589 7.53086 19.9713 7.5594 20.0826C7.56761 20.1149 7.57667 20.1469 7.58575 20.179C7.59164 20.1998 7.59754 20.2207 7.60322 20.2416C7.63378 20.3535 7.66463 20.4651 7.69893 20.5758C7.70987 20.6111 7.72161 20.6459 7.73333 20.6808C7.73891 20.6973 7.74448 20.7139 7.74996 20.7305C7.78629 20.8409 7.82319 20.951 7.86297 21.06C7.87546 21.0941 7.88873 21.128 7.90199 21.1619C7.90862 21.1788 7.91525 21.1957 7.92178 21.2127C7.96301 21.3205 8.00539 21.428 8.05036 21.5341C8.05368 21.5419 8.0567 21.5498 8.05973 21.5577C8.06276 21.5656 8.06579 21.5735 8.0691 21.5813H4.32361H4.32332C4.26364 21.3876 4.20973 21.1924 4.15899 20.9964C4.14772 20.9531 4.13721 20.9096 4.12668 20.8661C4.12267 20.8495 4.11866 20.8329 4.1146 20.8163C4.07885 20.6701 4.04512 20.5232 4.01427 20.3758C4.01005 20.3553 4.00575 20.335 4.00146 20.3146C3.99288 20.2738 3.98429 20.233 3.97622 20.1919C3.93816 19.9982 3.90357 19.8042 3.87387 19.6088C3.8733 19.6046 3.87258 19.6005 3.87186 19.5964C3.87113 19.5923 3.87041 19.5881 3.86984 19.584C3.83957 19.381 3.81506 19.1766 3.79373 18.972C3.7887 18.9238 3.78439 18.8753 3.78009 18.8268C3.77897 18.8142 3.77785 18.8016 3.77672 18.789C3.76288 18.6366 3.75164 18.4837 3.7427 18.3302C3.74173 18.313 3.74072 18.2959 3.73971 18.2787C3.7371 18.2345 3.73448 18.1901 3.73261 18.1457C3.72339 17.9382 3.71733 17.73 3.71733 17.521C3.71733 17.3071 3.72339 17.0943 3.7329 16.8821C3.73482 16.8374 3.73775 16.7927 3.74069 16.748C3.74217 16.7255 3.74365 16.7029 3.74501 16.6804C3.75366 16.5344 3.76403 16.3887 3.7773 16.2435C3.7845 16.1669 3.79229 16.0903 3.80065 16.0137C3.81564 15.8741 3.83322 15.735 3.85254 15.5963C3.85418 15.5844 3.85582 15.5724 3.85746 15.5605C3.86586 15.4993 3.87426 15.4381 3.88368 15.3771C3.90847 15.217 3.93701 15.0574 3.96757 14.8984C3.97147 14.878 3.97507 14.8576 3.97866 14.8371C3.98355 14.8093 3.98844 14.7816 3.99409 14.7539C4.03561 14.5492 4.08202 14.346 4.13305 14.1436C4.14179 14.1087 4.1514 14.0741 4.16102 14.0395C4.16695 14.0181 4.17288 13.9968 4.1786 13.9754C4.21781 13.8276 4.25874 13.6805 4.30285 13.5339C4.32505 13.4608 4.3484 13.3879 4.37175 13.3151C4.38057 13.2875 4.38902 13.2599 4.39747 13.2324C4.4103 13.1905 4.42312 13.1486 4.4372 13.1069H4.44152C4.54963 12.7866 4.66552 12.4686 4.79785 12.155C5.49004 10.5135 6.4809 9.03977 7.74275 7.77443C9.00432 6.50938 10.4743 5.51579 12.1112 4.8214C13.807 4.10215 15.6071 3.73761 17.4619 3.73761C19.3168 3.73761 21.1172 4.10215 22.8129 4.8214C23.5034 5.11425 24.1621 5.46317 24.79 5.86067L24.7903 5.85749C24.7903 5.85749 25.0152 5.99914 25.5829 6.03904ZM24.4612 8.50322C24.4612 9.02011 24.881 9.44073 25.3962 9.44073C25.9113 9.44073 26.3311 9.02039 26.3311 8.50322C26.3311 7.98662 25.9113 7.56599 25.3962 7.56599C24.881 7.56599 24.4612 7.98662 24.4612 8.50322Z" fill="white" />
  <path d="M20.9441 17.5207C20.9441 17.6589 21.0364 17.7763 21.1612 17.8159L23.4419 18.4209V16.6208L21.1612 17.2258C21.0364 17.2649 20.9441 17.3825 20.9441 17.5207Z" fill="white" />
  <path d="M27.2122 15.5717L27.2105 15.572L24.365 16.3774V17.1915V17.8497V18.6638L27.2105 19.4692L27.2122 19.4695C27.3287 19.4995 27.4509 19.5157 27.5766 19.5157H34.9753V15.5255H27.5766C27.4506 15.5255 27.3287 15.5416 27.2122 15.5717Z" fill="white" />
  <path d="M8.05036 21.5341C8.00539 21.4278 7.9633 21.3205 7.92178 21.2127C7.91371 21.1922 7.90593 21.1713 7.89786 21.1508H4.20195C4.24058 21.2948 4.27892 21.4387 4.32303 21.5813H4.32332C4.36743 21.7247 4.41788 21.8666 4.4666 22.0088H8.26687C8.19105 21.8521 8.1184 21.6943 8.05036 21.5341Z" fill="white" />
  <defs>
    <linearGradient id="paint0_linear_1_224"
                    x1="-5.53428"
                    y1="61.5651"
                    x2="77.63"
                    y2="61.5651"
                    gradientUnits="userSpaceOnUse">
      <stop stop-color="white" />
      <stop offset="0.2614" stop-color="white" />
      <stop offset="0.5237" stop-color="white" stop-opacity="0.6" />
      <stop offset="0.7314" stop-color="white" stop-opacity="0.1" />
      <stop offset="0.8979" stop-color="white" stop-opacity="0.01" />
    </linearGradient>
    <linearGradient id="paint1_linear_1_224"
                    x1="3.33763"
                    y1="61.3241"
                    x2="86.5019"
                    y2="61.3241"
                    gradientUnits="userSpaceOnUse">
      <stop stop-color="white" />
      <stop offset="0.2614" stop-color="white" />
      <stop offset="0.5237" stop-color="white" stop-opacity="0.6" />
      <stop offset="0.7314" stop-color="white" stop-opacity="0.1" />
      <stop offset="0.8979" stop-color="white" stop-opacity="0.01" />
    </linearGradient>
    <linearGradient id="paint2_linear_1_224"
                    x1="-5.81903"
                    y1="62.056"
                    x2="77.3452"
                    y2="62.056"
                    gradientUnits="userSpaceOnUse">
      <stop stop-color="white" />
      <stop offset="0.2614" stop-color="white" />
      <stop offset="0.5237" stop-color="white" stop-opacity="0.6" />
      <stop offset="0.7314" stop-color="white" stop-opacity="0.1" />
      <stop offset="0.8979" stop-color="white" stop-opacity="0.01" />
    </linearGradient>
    <linearGradient id="paint3_linear_1_224"
                    x1="3.56935"
                    y1="60.8044"
                    x2="86.7336"
                    y2="60.8044"
                    gradientUnits="userSpaceOnUse">
      <stop stop-color="white" />
      <stop offset="0.2614" stop-color="white" />
      <stop offset="0.5237" stop-color="white" stop-opacity="0.6" />
      <stop offset="0.7314" stop-color="white" stop-opacity="0.1" />
      <stop offset="0.8979" stop-color="white" stop-opacity="0.01" />
    </linearGradient>
    <linearGradient id="paint4_linear_1_224"
                    x1="3.67822"
                    y1="60.1634"
                    x2="86.8425"
                    y2="60.1634"
                    gradientUnits="userSpaceOnUse">
      <stop stop-color="white" />
      <stop offset="0.2614" stop-color="white" />
      <stop offset="0.5237" stop-color="white" stop-opacity="0.6" />
      <stop offset="0.7314" stop-color="white" stop-opacity="0.1" />
      <stop offset="0.8979" stop-color="white" stop-opacity="0.01" />
    </linearGradient>
    <linearGradient id="paint5_linear_1_224"
                    x1="-5.31119"
                    y1="61.0645"
                    x2="77.8531"
                    y2="61.0645"
                    gradientUnits="userSpaceOnUse">
      <stop stop-color="white" />
      <stop offset="0.2614" stop-color="white" />
      <stop offset="0.5237" stop-color="white" stop-opacity="0.6" />
      <stop offset="0.7314" stop-color="white" stop-opacity="0.1" />
      <stop offset="0.8979" stop-color="white" stop-opacity="0.01" />
    </linearGradient>
    <linearGradient id="paint6_linear_1_224"
                    x1="2.73005"
                    y1="62.8267"
                    x2="85.8943"
                    y2="62.8267"
                    gradientUnits="userSpaceOnUse">
      <stop stop-color="white" />
      <stop offset="0.2614" stop-color="white" />
      <stop offset="0.5237" stop-color="white" stop-opacity="0.6" />
      <stop offset="0.7314" stop-color="white" stop-opacity="0.1" />
      <stop offset="0.8979" stop-color="white" stop-opacity="0.01" />
    </linearGradient>
    <linearGradient id="paint7_linear_1_224"
                    x1="-5.05486"
                    y1="60.0074"
                    x2="78.1094"
                    y2="60.0074"
                    gradientUnits="userSpaceOnUse">
      <stop stop-color="white" />
      <stop offset="0.2614" stop-color="white" />
      <stop offset="0.5237" stop-color="white" stop-opacity="0.6" />
      <stop offset="0.7314" stop-color="white" stop-opacity="0.1" />
      <stop offset="0.8979" stop-color="white" stop-opacity="0.01" />
    </linearGradient>
    <linearGradient id="paint8_linear_1_224"
                    x1="-6.16598"
                    y1="62.5419"
                    x2="76.9983"
                    y2="62.5419"
                    gradientUnits="userSpaceOnUse">
      <stop stop-color="white" />
      <stop offset="0.2614" stop-color="white" />
      <stop offset="0.5237" stop-color="white" stop-opacity="0.6" />
      <stop offset="0.7314" stop-color="white" stop-opacity="0.1" />
      <stop offset="0.8979" stop-color="white" stop-opacity="0.01" />
    </linearGradient>
    <linearGradient id="paint9_linear_1_224"
                    x1="-5.1518"
                    y1="60.5521"
                    x2="78.0125"
                    y2="60.5521"
                    gradientUnits="userSpaceOnUse">
      <stop stop-color="white" />
      <stop offset="0.2614" stop-color="white" />
      <stop offset="0.5237" stop-color="white" stop-opacity="0.6" />
      <stop offset="0.7314" stop-color="white" stop-opacity="0.1" />
      <stop offset="0.8979" stop-color="white" stop-opacity="0.01" />
    </linearGradient>
    <linearGradient id="paint10_linear_1_224"
                    x1="3.07368"
                    y1="62.2089"
                    x2="86.238"
                    y2="62.2089"
                    gradientUnits="userSpaceOnUse">
      <stop stop-color="white" />
      <stop offset="0.2614" stop-color="white" />
      <stop offset="0.5237" stop-color="white" stop-opacity="0.6" />
      <stop offset="0.7314" stop-color="white" stop-opacity="0.1" />
      <stop offset="0.8979" stop-color="white" stop-opacity="0.01" />
    </linearGradient>
    <linearGradient id="paint11_linear_1_224"
                    x1="3.71682"
                    y1="31.4311"
                    x2="27.6022"
                    y2="31.4311"
                    gradientUnits="userSpaceOnUse">
      <stop stop-color="white" />
      <stop offset="0.2614" stop-color="white" />
      <stop offset="0.5237" stop-color="white" stop-opacity="0.6" />
      <stop offset="0.7314" stop-color="white" stop-opacity="0.1" />
      <stop offset="0.8979" stop-color="white" stop-opacity="0.01" />
    </linearGradient>
    <linearGradient id="paint12_linear_1_224"
                    x1="-6.57255"
                    y1="63.0226"
                    x2="76.5917"
                    y2="63.0226"
                    gradientUnits="userSpaceOnUse">
      <stop stop-color="white" />
      <stop offset="0.2614" stop-color="white" />
      <stop offset="0.5237" stop-color="white" stop-opacity="0.6" />
      <stop offset="0.7314" stop-color="white" stop-opacity="0.1" />
      <stop offset="0.8979" stop-color="white" stop-opacity="0.01" />
    </linearGradient>
    <linearGradient id="paint13_linear_1_224"
                    x1="3.71665"
                    y1="41.5489"
                    x2="27.602"
                    y2="41.5489"
                    gradientUnits="userSpaceOnUse">
      <stop stop-color="white" />
      <stop offset="0.2614" stop-color="white" />
      <stop offset="0.5237" stop-color="white" stop-opacity="0.6" />
      <stop offset="0.7314" stop-color="white" stop-opacity="0.1" />
      <stop offset="0.8979" stop-color="white" stop-opacity="0.01" />
    </linearGradient>
    <linearGradient id="paint14_linear_1_224"
                    x1="3.7169"
                    y1="31.7508"
                    x2="27.6023"
                    y2="31.7508"
                    gradientUnits="userSpaceOnUse">
      <stop stop-color="white" />
      <stop offset="0.2614" stop-color="white" />
      <stop offset="0.5237" stop-color="white" stop-opacity="0.6" />
      <stop offset="0.7314" stop-color="white" stop-opacity="0.1" />
      <stop offset="0.8979" stop-color="white" stop-opacity="0.01" />
    </linearGradient>
    <linearGradient id="paint15_linear_1_224"
                    x1="3.71659"
                    y1="36.7913"
                    x2="27.6019"
                    y2="36.7913"
                    gradientUnits="userSpaceOnUse">
      <stop stop-color="white" />
      <stop offset="0.2614" stop-color="white" />
      <stop offset="0.5237" stop-color="white" stop-opacity="0.6" />
      <stop offset="0.7314" stop-color="white" stop-opacity="0.1" />
      <stop offset="0.8979" stop-color="white" stop-opacity="0.01" />
    </linearGradient>
    <linearGradient id="paint16_linear_1_224"
                    x1="-4.2191"
                    y1="53.0051"
                    x2="33.7902"
                    y2="53.0051"
                    gradientUnits="userSpaceOnUse">
      <stop stop-color="white" />
      <stop offset="0.2614" stop-color="white" />
      <stop offset="0.5237" stop-color="white" stop-opacity="0.6" />
      <stop offset="0.7314" stop-color="white" stop-opacity="0.1" />
      <stop offset="0.8979" stop-color="white" stop-opacity="0.01" />
    </linearGradient>
    <linearGradient id="paint17_linear_1_224"
                    x1="2.87307"
                    y1="46.5501"
                    x2="28.7971"
                    y2="46.5501"
                    gradientUnits="userSpaceOnUse">
      <stop stop-color="white" />
      <stop offset="0.2614" stop-color="white" />
      <stop offset="0.5237" stop-color="white" stop-opacity="0.6" />
      <stop offset="0.7314" stop-color="white" stop-opacity="0.1" />
      <stop offset="0.8979" stop-color="white" stop-opacity="0.01" />
    </linearGradient>
    <linearGradient id="paint18_linear_1_224"
                    x1="2.09357"
                    y1="38.4962"
                    x2="27.7299"
                    y2="38.4962"
                    gradientUnits="userSpaceOnUse">
      <stop stop-color="white" />
      <stop offset="0.2614" stop-color="white" />
      <stop offset="0.5237" stop-color="white" stop-opacity="0.6" />
      <stop offset="0.7314" stop-color="white" stop-opacity="0.1" />
      <stop offset="0.8979" stop-color="white" stop-opacity="0.01" />
    </linearGradient>
    <linearGradient id="paint19_linear_1_224"
                    x1="3.71656"
                    y1="41.5841"
                    x2="27.6019"
                    y2="41.5841"
                    gradientUnits="userSpaceOnUse">
      <stop stop-color="white" />
      <stop offset="0.2614" stop-color="white" />
      <stop offset="0.5237" stop-color="white" stop-opacity="0.6" />
      <stop offset="0.7314" stop-color="white" stop-opacity="0.1" />
      <stop offset="0.8979" stop-color="white" stop-opacity="0.01" />
    </linearGradient>
    <linearGradient id="paint20_linear_1_224"
                    x1="2.19229"
                    y1="46.6543"
                    x2="28.2626"
                    y2="46.6543"
                    gradientUnits="userSpaceOnUse">
      <stop stop-color="white" />
      <stop offset="0.2614" stop-color="white" />
      <stop offset="0.5237" stop-color="white" stop-opacity="0.6" />
      <stop offset="0.7314" stop-color="white" stop-opacity="0.1" />
      <stop offset="0.8979" stop-color="white" stop-opacity="0.01" />
    </linearGradient>
  </defs>
</svg>
